# xmcd
#
# Track frame offsets: 
#        182
#        25877
#        69612
#        100652
#        132127
#        160120
#        199010
#        223525
#
# Disc length: 3441 seconds
#
# Revision: 1
# Processed by: cddbd v1.5.2PL0 Copyright (c) Steve Scherf et al.
# Submitted via: ExactAudioCopy v0.90b4
#
DISCID=670d6f08
DTITLE=Jeroen Van Herzeele, Peter Hertmans and Stephane Galland - At The
DTITLE=Crossroads
DYEAR=1994
DGENRE=Progressive Rock
TTITLE0=At The Crossroads
TTITLE1=Turkish Bath
TTITLE2=Song For Xero
TTITLE3=Ogunde
TTITLE4=Three Crusaders
TTITLE5=Brazilia
TTITLE6=Fool Moon's Night
TTITLE7=When The Ending Meets The Beginning
EXTD=YEAR: 1994
EXTT0=
EXTT1=
EXTT2=
EXTT3=
EXTT4=
EXTT5=
EXTT6=
EXTT7=
PLAYORDER=
